<svg width="91" height="17" viewBox="0 0 91 17" fill="none" xmlns="http://www.w3.org/2000/svg">
<path d="M48.9374 14.8929H45.7141V2.02063H48.9374V14.8929ZM29.5102 6.95793V11.8071H24.7187C23.5862 11.8512 22.5843 10.9695 22.5407 9.82333V2.02063H19.3174V9.647C19.4045 12.6006 21.8002 14.937 24.7187 14.8929H32.69V6.95793H29.5102ZM37.525 2.02063H29.5537V5.10645H37.525C38.6575 5.06236 39.6594 5.94402 39.7029 7.09018V14.8929H42.9263V7.26652C42.8392 4.31295 40.4434 1.97655 37.525 2.02063ZM65.1413 2.02063H51.6816V5.10645H56.8216V14.8929H60.0449V5.10645H65.1848L65.1413 2.02063ZM73.069 6.91385C72.2414 6.82568 71.5009 7.48693 71.4138 8.32451C71.3267 9.16209 71.98 9.9115 72.8076 9.99966C72.8947 9.99966 72.9819 9.99966 73.069 9.99966H79.8206V6.91385H73.069ZM73.2432 5.10645H79.8206V2.02063H73.069C69.3665 2.02063 66.4045 4.93011 66.4045 8.45676C66.4045 11.9834 69.3665 14.8929 73.069 14.8929H79.8206V11.8071H73.2432C71.2395 11.8071 69.6278 10.3082 69.6278 8.45676C69.6278 6.60527 71.2395 5.10645 73.2432 5.10645ZM87.7048 11.8071C86.8336 11.8512 86.0931 11.1899 86.006 10.3082V2.02063H82.7826V10.176C82.8262 12.8651 85.0477 14.981 87.6612 14.937H90.6668V11.8512H87.7048V11.8071Z" fill="#5C0F8B"/>
<path d="M13.916 6.60506H9.64721V4.75357H14.9178C12.9141 0.830176 8.12267 -0.668648 4.24593 1.35917C0.369194 3.38699 -1.11181 8.23613 0.891894 12.1595C2.8956 16.0829 7.68707 17.5817 11.5638 15.5539C14.1773 14.1873 15.789 11.4542 15.789 8.45654C15.789 7.44263 14.9614 6.60506 13.916 6.60506C13.916 6.64914 13.916 6.64914 13.916 6.60506ZM11.6074 12.5563H6.77234C4.98642 12.6003 3.54898 11.1897 3.50542 9.38229V4.75357H5.46557V9.47045C5.50913 10.1758 6.11894 10.7048 6.81589 10.6607H9.69078V7.70713H11.6509V12.5563H11.6074Z" fill="#E6540F"/>
</svg>
